<svg width="800" height="600" xmlns="http://www.w3.org/2000/svg">
  <rect width="800" height="600" fill="#0F172A"/>
  <rect x="20" y="20" width="760" height="560" fill="#1E293B" rx="8"/>
  
  <!-- Header -->
  <rect x="40" y="40" width="720" height="60" fill="#10b981" rx="4"/>
  <text x="400" y="77" font-family="Arial, sans-serif" font-size="24" font-weight="bold" fill="white" text-anchor="middle">Live Algorithm Activity</text>
  
  <!-- Chart with candlesticks -->
  <rect x="60" y="120" width="680" height="400" fill="#1E293B" stroke="#10b981" stroke-width="2" rx="4"/>
  
  <!-- Candlesticks -->
  <rect x="100" y="250" width="30" height="100" fill="#10b981"/>
  <line x1="115" y1="200" x2="115" y2="350" stroke="#10b981" stroke-width="2"/>
  
  <rect x="160" y="280" width="30" height="80" fill="#ef4444"/>
  <line x1="175" y1="240" x2="175" y2="360" stroke="#ef4444" stroke-width="2"/>
  
  <rect x="220" y="260" width="30" height="90" fill="#10b981"/>
  <line x1="235" y1="220" x2="235" y2="350" stroke="#10b981" stroke-width="2"/>
  
  <rect x="280" y="240" width="30" height="110" fill="#10b981"/>
  <line x1="295" y1="200" x2="295" y2="350" stroke="#10b981" stroke-width="2"/>
  
  <rect x="340" y="290" width="30" height="70" fill="#ef4444"/>
  <line x1="355" y1="260" x2="355" y2="360" stroke="#ef4444" stroke-width="2"/>
  
  <rect x="400" y="270" width="30" height="85" fill="#10b981"/>
  <line x1="415" y1="230" x2="415" y2="355" stroke="#10b981" stroke-width="2"/>
  
  <rect x="460" y="250" width="30" height="95" fill="#10b981"/>
  <line x1="475" y1="210" x2="475" y2="345" stroke="#10b981" stroke-width="2"/>
  
  <rect x="520" y="280" width="30" height="75" fill="#ef4444"/>
  <line x1="535" y1="250" x2="535" y2="355" stroke="#ef4444" stroke-width="2"/>
  
  <rect x="580" y="260" width="30" height="90" fill="#10b981"/>
  <line x1="595" y1="220" x2="595" y2="350" stroke="#10b981" stroke-width="2"/>
  
  <rect x="640" y="240" width="30" height="105" fill="#10b981"/>
  <line x1="655" y1="200" x2="655" y2="345" stroke="#10b981" stroke-width="2"/>
  
  <!-- Trading signals -->
  <circle cx="115" cy="200" r="8" fill="#10b981"/>
  <text x="115" y="185" font-family="Arial, sans-serif" font-size="12" fill="#10b981" text-anchor="middle">BUY</text>
  
  <circle cx="355" cy="260" r="8" fill="#ef4444"/>
  <text x="355" y="245" font-family="Arial, sans-serif" font-size="12" fill="#ef4444" text-anchor="middle">SELL</text>
  
  <!-- Active indicators -->
  <rect x="60" y="540" width="680" height="30" fill="#059669" rx="4"/>
  <text x="400" y="560" font-family="Arial, sans-serif" font-size="14" font-weight="bold" fill="white" text-anchor="middle">Algorithm Active - 7 Strategies Running</text>
</svg>
