<svg xmlns="http://www.w3.org/2000/svg" viewBox="0 0 48 48" width="48" height="48">
  <!-- Bitcoin Logo -->
  <circle cx="24" cy="24" r="22" fill="#F7931A"/>
  <path fill="white" d="M31.5 20.5c0.5-3-1.8-4.6-5-5.7l1-4.1-2.5-0.6-1 4c-0.7-0.2-1.3-0.3-2-0.5l1-4-2.5-0.6-1 4.1c-0.5-0.1-1.1-0.3-1.6-0.4l0-0.1-3.4-0.9-0.7 2.7s1.8 0.4 1.8 0.5c1 0.3 1.2 0.9 1.2 1.5l-1.2 4.7c0.1 0 0.2 0 0.3 0.1l-0.3-0.1-1.6 6.6c-0.1 0.3-0.4 0.8-1.1 0.6 0 0-1.8-0.5-1.8-0.5l-1.2 2.9 3.2 0.8c0.6 0.2 1.2 0.3 1.8 0.5l-1 4.2 2.5 0.6 1-4.1c0.7 0.2 1.4 0.4 2.1 0.5l-1 4.1 2.5 0.6 1-4.2c4.3 0.8 7.5 0.5 8.9-3.4 1.1-3.1-0.1-4.9-2.3-6.1 1.6-0.4 2.9-1.5 3.2-3.7zm-5.8 8.1c-0.8 3.1-6 1.4-7.7 1l1.4-5.5c1.7 0.4 7.2 1.3 6.3 4.5zm0.8-8.2c-0.7 2.8-5 1.4-6.4 1l1.2-5c1.4 0.4 6 1 5.2 4z"/>
</svg>