<svg xmlns="http://www.w3.org/2000/svg" viewBox="0 0 48 48" width="48" height="48">
  <!-- USDT/Tether Logo -->
  <circle cx="24" cy="24" r="22" fill="#26A17B"/>
  <path d="M27.5 24.5c0 0.3-1.5 0.5-3.5 0.5s-3.5-0.2-3.5-0.5c0-0.3 1.5-0.5 3.5-0.5s3.5 0.2 3.5 0.5z" fill="white"/>
  <path d="M24 26c-3.3 0-6-0.4-6-1v8c0 0.6 2.7 1 6 1s6-0.4 6-1v-8c0 0.6-2.7 1-6 1z" fill="white"/>
  <rect x="22" y="12" width="4" height="14" fill="white"/>
  <rect x="14" y="12" width="20" height="4" fill="white"/>
</svg>